# xmcd
#
# Track frame offsets:
#	150
#	13273
#	28343
#	44797
#	63179
#	78252
#	95198
#	111111
#	125883
#	143370
#	158787
#	172918
#	190464
#	211500
#
# Disc length: 3526 seconds
#
# Revision: 0
# Processed by: cddbd v1.5.1PL0 Copyright (c) Steve Scherf et al.
# Submitted via: EasyCDDAExtractor 7.5.0.1
#
DISCID=c20dc40e
DTITLE=TikTak - Frendit
DYEAR=1999
DGENRE=Cabaret
TTITLE0=Lopeta - radio mix
TTITLE1=odotan
TTITLE2=sekoitat mun maailman
TTITLE3=menneisyyteen kuulut
TTITLE4=sydän lyö
TTITLE5=sateenkaari
TTITLE6=junat
TTITLE7=täydellinen
TTITLE8=minne vaan
TTITLE9=en sua milloinkaan
TTITLE10=matkaan
TTITLE11=sekoitat mun maailman - tiktak goes unplugged
TTITLE12=lopeta - karaoke mix
TTITLE13=sälää
EXTD=
EXTT0=
EXTT1=
EXTT2=
EXTT3=
EXTT4=
EXTT5=
EXTT6=
EXTT7=
EXTT8=
EXTT9=
EXTT10=
EXTT11=
EXTT12=
EXTT13=
PLAYORDER=
